<svg width="26" height="26" viewBox="0 0 26 26" fill="none" xmlns="http://www.w3.org/2000/svg">
<circle cx="12.6" cy="12.8441" r="12.6" fill="#1E293B"/>
<path d="M18.1864 10.1288C17.8093 10.2964 17.4112 10.4011 16.9922 10.464C17.4112 10.2126 17.7464 9.81451 17.8931 9.33263C17.495 9.56309 17.0551 9.7307 16.5732 9.83546C16.1961 9.43739 15.6513 9.18597 15.0647 9.18597C13.9333 9.18597 13.0115 10.1078 13.0115 11.2392C13.0115 11.4068 13.0324 11.5535 13.0743 11.7001C11.3773 11.6163 9.84787 10.7992 8.82127 9.54214C8.65366 9.85641 8.54891 10.1916 8.54891 10.5687C8.54891 11.2811 8.90507 11.9096 9.47075 12.2867C9.13554 12.2658 8.82127 12.182 8.52795 12.0353V12.0563C8.52795 13.0619 9.24029 13.9 10.1831 14.0885C10.0155 14.1304 9.82692 14.1514 9.63836 14.1514C9.51266 14.1514 9.366 14.1304 9.24029 14.1095C9.51266 14.9266 10.2669 15.5342 11.1678 15.5342C10.4555 16.0789 9.57551 16.4141 8.61176 16.4141C8.44415 16.4141 8.27654 16.4141 8.12988 16.3932C9.05173 16.9798 10.1202 17.315 11.2935 17.315C15.0857 17.315 17.1598 14.1723 17.1598 11.4487C17.1598 11.3649 17.1598 11.2601 17.1598 11.1763C17.5579 10.904 17.9141 10.5478 18.1864 10.1288Z" fill="white"/>
</svg>
