<svg width="27" height="26" viewBox="0 0 27 26" fill="none" xmlns="http://www.w3.org/2000/svg">
<circle cx="13.4999" cy="12.6" r="12.6" fill="white"/>
<path d="M19.0863 9.88469C18.7092 10.0523 18.3111 10.1571 17.8921 10.2199C18.3111 9.9685 18.6463 9.57043 18.793 9.08855C18.3949 9.31901 17.955 9.48662 17.4731 9.59138C17.096 9.19331 16.5512 8.94189 15.9646 8.94189C14.8332 8.94189 13.9114 9.86374 13.9114 10.9951C13.9114 11.1627 13.9323 11.3094 13.9742 11.456C12.2772 11.3722 10.7478 10.5551 9.72117 9.29806C9.55356 9.61233 9.44881 9.94755 9.44881 10.3247C9.44881 11.037 9.80498 11.6655 10.3707 12.0427C10.0354 12.0217 9.72117 11.9379 9.42786 11.7912V11.8122C9.42786 12.8179 10.1402 13.6559 11.083 13.8445C10.9154 13.8864 10.7268 13.9073 10.5383 13.9073C10.4126 13.9073 10.2659 13.8864 10.1402 13.8654C10.4126 14.6825 11.1668 15.2901 12.0677 15.2901C11.3554 15.8348 10.4754 16.17 9.51166 16.17C9.34405 16.17 9.17644 16.17 9.02979 16.1491C9.95163 16.7357 11.0201 17.0709 12.1934 17.0709C15.9856 17.0709 18.0597 13.9283 18.0597 11.2046C18.0597 11.1208 18.0597 11.0161 18.0597 10.9323C18.4578 10.6599 18.814 10.3037 19.0863 9.88469Z" fill="#1E293B"/>
</svg>
