<svg width="26" height="26" viewBox="0 0 26 26" fill="none" xmlns="http://www.w3.org/2000/svg">
<circle cx="12.6" cy="12.844" r="12.6" fill="#1E293B"/>
<path d="M12.6007 7.84632C14.2285 7.84632 14.4213 7.85242 15.0644 7.88174C15.451 7.88647 15.834 7.95747 16.1966 8.09164C16.4596 8.19307 16.6984 8.34843 16.8977 8.54774C17.0971 8.74705 17.2524 8.98588 17.3538 9.24887C17.488 9.61152 17.559 9.99449 17.5637 10.3811C17.5928 11.0242 17.5992 11.217 17.5992 12.8448C17.5992 14.4726 17.5931 14.6654 17.5637 15.3085C17.559 15.6951 17.488 16.0781 17.3538 16.4407C17.2524 16.7037 17.0971 16.9426 16.8977 17.1419C16.6984 17.3412 16.4596 17.4965 16.1966 17.598C15.834 17.7321 15.451 17.8031 15.0644 17.8079C14.4216 17.8369 14.2288 17.8433 12.6007 17.8433C10.9726 17.8433 10.7798 17.8372 10.137 17.8079C9.75036 17.8031 9.36739 17.7321 9.00475 17.598C8.74176 17.4965 8.50292 17.3412 8.30362 17.1419C8.10431 16.9426 7.94894 16.7037 7.84752 16.4407C7.71334 16.0781 7.64235 15.6951 7.63762 15.3085C7.60858 14.6654 7.6022 14.4726 7.6022 12.8448C7.6022 11.217 7.60829 11.0242 7.63762 10.3811C7.64235 9.99449 7.71334 9.61152 7.84752 9.24887C7.94894 8.98588 8.10431 8.74705 8.30362 8.54774C8.50292 8.34843 8.74176 8.19307 9.00475 8.09164C9.36739 7.95747 9.75036 7.88647 10.137 7.88174C10.7801 7.85271 10.9728 7.84632 12.6007 7.84632V7.84632ZM12.6007 6.74774C10.9458 6.74774 10.7374 6.75471 10.0871 6.78432C9.58105 6.79439 9.0804 6.8902 8.60642 7.06768C8.19982 7.22087 7.83155 7.46094 7.52729 7.77113C7.21682 8.0755 6.97655 8.44398 6.82326 8.85084C6.64578 9.32482 6.54997 9.82546 6.53991 10.3315C6.51087 10.9812 6.50391 11.1897 6.50391 12.8445C6.50391 14.4994 6.51087 14.7078 6.54049 15.3581C6.55055 15.8641 6.64636 16.3648 6.82384 16.8388C6.97696 17.2456 7.21703 17.6141 7.52729 17.9185C7.83172 18.2287 8.2002 18.4688 8.607 18.6219C9.08098 18.7994 9.58163 18.8952 10.0876 18.9053C10.738 18.9343 10.9456 18.9419 12.6013 18.9419C14.257 18.9419 14.4646 18.9349 15.1149 18.9053C15.6209 18.8952 16.1215 18.7994 16.5955 18.6219C17.0004 18.465 17.3681 18.2253 17.675 17.9181C17.982 17.611 18.2214 17.2432 18.3781 16.8382C18.5556 16.3642 18.6514 15.8636 18.6615 15.3575C18.6905 14.7078 18.6975 14.4994 18.6975 12.8445C18.6975 11.1897 18.6905 10.9812 18.6609 10.3309C18.6508 9.82488 18.555 9.32424 18.3775 8.85026C18.2244 8.44345 17.9843 8.07497 17.6741 7.77055C17.3696 7.46029 17.0012 7.22021 16.5944 7.0671C16.1204 6.88962 15.6197 6.79381 15.1137 6.78374C14.464 6.75471 14.2555 6.74774 12.6007 6.74774Z" fill="white"/>
<path d="M12.6019 9.71484C11.9827 9.71484 11.3774 9.89846 10.8625 10.2425C10.3476 10.5865 9.94636 11.0755 9.70939 11.6476C9.47243 12.2196 9.41042 12.8492 9.53123 13.4565C9.65203 14.0638 9.95022 14.6217 10.3881 15.0595C10.8259 15.4974 11.3838 15.7956 11.9911 15.9164C12.5984 16.0372 13.2279 15.9752 13.8 15.7382C14.3721 15.5012 14.8611 15.0999 15.2051 14.5851C15.5491 14.0702 15.7327 13.4649 15.7327 12.8457C15.7327 12.0153 15.4029 11.219 14.8157 10.6318C14.2286 10.0447 13.4323 9.71484 12.6019 9.71484ZM12.6019 14.8779C12.2 14.8779 11.8071 14.7588 11.4728 14.5354C11.1386 14.3121 10.8782 13.9947 10.7243 13.6234C10.5705 13.252 10.5303 12.8434 10.6087 12.4492C10.6871 12.055 10.8807 11.6929 11.1649 11.4087C11.4491 11.1244 11.8112 10.9309 12.2054 10.8525C12.5997 10.7741 13.0083 10.8143 13.3796 10.9681C13.751 11.1219 14.0684 11.3824 14.2917 11.7166C14.515 12.0508 14.6342 12.4437 14.6342 12.8457C14.6342 13.3847 14.4201 13.9016 14.0389 14.2827C13.6578 14.6638 13.1409 14.8779 12.6019 14.8779V14.8779Z" fill="white"/>
<path d="M15.8559 10.322C16.2599 10.322 16.5875 9.99444 16.5875 9.59038C16.5875 9.18632 16.2599 8.85876 15.8559 8.85876C15.4518 8.85876 15.1243 9.18632 15.1243 9.59038C15.1243 9.99444 15.4518 10.322 15.8559 10.322Z" fill="white"/>
</svg>
