<svg width="27" height="26" viewBox="0 0 27 26" fill="none" xmlns="http://www.w3.org/2000/svg">
<circle cx="13.4999" cy="12.5999" r="12.6" fill="#FAFAFA"/>
<path d="M13.5006 7.60224C15.1284 7.60224 15.3212 7.60834 15.9643 7.63766C16.3509 7.64239 16.7339 7.71339 17.0965 7.84757C17.3595 7.94899 17.5983 8.10435 17.7976 8.30366C17.997 8.50297 18.1523 8.74181 18.2537 9.00479C18.3879 9.36744 18.4589 9.75041 18.4636 10.137C18.4927 10.7801 18.4991 10.9729 18.4991 12.6007C18.4991 14.2286 18.493 14.4213 18.4636 15.0644C18.4589 15.451 18.3879 15.834 18.2537 16.1967C18.1523 16.4596 17.997 16.6985 17.7976 16.8978C17.5983 17.0971 17.3595 17.2525 17.0965 17.3539C16.7339 17.4881 16.3509 17.5591 15.9643 17.5638C15.3215 17.5928 15.1287 17.5992 13.5006 17.5992C11.8725 17.5992 11.6797 17.5931 11.0369 17.5638C10.6503 17.5591 10.2673 17.4881 9.90465 17.3539C9.64166 17.2525 9.40283 17.0971 9.20352 16.8978C9.00421 16.6985 8.84884 16.4596 8.74742 16.1967C8.61325 15.834 8.54225 15.451 8.53752 15.0644C8.50849 14.4213 8.5021 14.2286 8.5021 12.6007C8.5021 10.9729 8.5082 10.7801 8.53752 10.137C8.54225 9.75041 8.61325 9.36744 8.74742 9.00479C8.84884 8.74181 9.00421 8.50297 9.20352 8.30366C9.40283 8.10435 9.64166 7.94899 9.90465 7.84757C10.2673 7.71339 10.6503 7.64239 11.0369 7.63766C11.68 7.60863 11.8727 7.60224 13.5006 7.60224V7.60224ZM13.5006 6.50366C11.8457 6.50366 11.6373 6.51063 10.987 6.54024C10.481 6.55031 9.9803 6.64612 9.50632 6.8236C9.09973 6.97679 8.73145 7.21686 8.4272 7.52705C8.11672 7.83142 7.87645 8.1999 7.72316 8.60676C7.54568 9.08074 7.44987 9.58139 7.43981 10.0874C7.41078 10.7371 7.40381 10.9456 7.40381 12.6004C7.40381 14.2553 7.41078 14.4637 7.44039 15.114C7.45045 15.6201 7.54626 16.1207 7.72374 16.5947C7.87686 17.0015 8.11693 17.37 8.4272 17.6744C8.73162 17.9847 9.1001 18.2247 9.50691 18.3779C9.98089 18.5553 10.4815 18.6511 10.9876 18.6612C11.6379 18.6902 11.8455 18.6978 13.5012 18.6978C15.1569 18.6978 15.3645 18.6908 16.0148 18.6612C16.5208 18.6511 17.0214 18.5553 17.4954 18.3779C17.9003 18.2209 18.268 17.9812 18.5749 17.6741C18.8819 17.3669 19.1213 16.9991 19.278 16.5941C19.4555 16.1201 19.5513 15.6195 19.5614 15.1135C19.5904 14.4637 19.5974 14.2553 19.5974 12.6004C19.5974 10.9456 19.5904 10.7371 19.5608 10.0868C19.5507 9.5808 19.4549 9.08016 19.2774 8.60618C19.1243 8.19937 18.8842 7.83089 18.574 7.52647C18.2695 7.21621 17.9011 6.97614 17.4943 6.82302C17.0203 6.64554 16.5196 6.54973 16.0136 6.53966C15.3639 6.51063 15.1554 6.50366 13.5006 6.50366Z" fill="#1E293B"/>
<path d="M13.5019 9.4707C12.8827 9.4707 12.2774 9.65432 11.7625 9.99834C11.2477 10.3424 10.8464 10.8313 10.6094 11.4034C10.3725 11.9755 10.3104 12.605 10.4313 13.2123C10.5521 13.8197 10.8502 14.3775 11.2881 14.8154C11.726 15.2532 12.2838 15.5514 12.8911 15.6722C13.4985 15.793 14.128 15.731 14.7001 15.4941C15.2721 15.2571 15.7611 14.8558 16.1051 14.3409C16.4492 13.8261 16.6328 13.2208 16.6328 12.6015C16.6328 11.7712 16.3029 10.9749 15.7158 10.3877C15.1286 9.80056 14.3323 9.4707 13.5019 9.4707ZM13.5019 14.6338C13.1 14.6338 12.7071 14.5146 12.3729 14.2913C12.0387 14.068 11.7782 13.7506 11.6244 13.3793C11.4706 13.0079 11.4303 12.5993 11.5087 12.2051C11.5871 11.8108 11.7807 11.4487 12.0649 11.1645C12.3491 10.8803 12.7112 10.6867 13.1055 10.6083C13.4997 10.5299 13.9083 10.5702 14.2796 10.724C14.651 10.8778 14.9684 11.1383 15.1917 11.4725C15.415 11.8067 15.5342 12.1996 15.5342 12.6015C15.5342 13.1405 15.3201 13.6574 14.939 14.0386C14.5578 14.4197 14.0409 14.6338 13.5019 14.6338V14.6338Z" fill="#1E293B"/>
<path d="M16.7558 10.078C17.1598 10.078 17.4874 9.75042 17.4874 9.34636C17.4874 8.9423 17.1598 8.61475 16.7558 8.61475C16.3517 8.61475 16.0242 8.9423 16.0242 9.34636C16.0242 9.75042 16.3517 10.078 16.7558 10.078Z" fill="#1E293B"/>
</svg>
