<svg width="26" height="26" viewBox="0 0 26 26" fill="none" xmlns="http://www.w3.org/2000/svg">
<circle cx="12.6" cy="12.844" r="12.6" fill="#1E293B"/>
<path fill-rule="evenodd" clip-rule="evenodd" d="M13.1479 6.74774C9.9161 6.74774 7.31604 9.3478 7.31604 12.5796C7.31604 15.1554 8.99271 17.3424 11.3012 18.12C11.5928 18.1686 11.69 17.9985 11.69 17.8284C11.69 17.6826 11.69 17.3181 11.69 16.8321C10.0619 17.1966 9.7217 16.0545 9.7217 16.0545C9.45441 15.3741 9.06561 15.204 9.06561 15.204C8.53102 14.8395 9.11421 14.8395 9.11421 14.8395C9.6974 14.8881 10.0133 15.447 10.0133 15.447C10.5236 16.3461 11.3741 16.0788 11.7143 15.933C11.7629 15.5442 11.9087 15.3012 12.0788 15.1554C10.7909 15.0096 9.43011 14.4993 9.43011 12.2638C9.43011 11.632 9.6488 11.0974 10.0376 10.7086C9.989 10.5628 9.7703 9.97959 10.0862 9.1534C10.0862 9.1534 10.5722 9.00761 11.69 9.76089C12.1517 9.6394 12.662 9.5665 13.1479 9.5665C13.6339 9.5665 14.1442 9.6394 14.6059 9.76089C15.7237 9.00761 16.2097 9.1534 16.2097 9.1534C16.5256 9.95529 16.3312 10.5385 16.2583 10.7086C16.6228 11.1217 16.8658 11.632 16.8658 12.2638C16.8658 14.4993 15.505 14.9853 14.1928 15.1311C14.4115 15.3012 14.5816 15.6657 14.5816 16.2003C14.5816 16.9779 14.5816 17.6097 14.5816 17.8041C14.5816 17.9499 14.6788 18.1443 14.9947 18.0957C17.3032 17.3424 18.9799 15.1554 18.9799 12.5796C18.9799 9.3478 16.3798 6.74774 13.1479 6.74774Z" fill="white"/>
</svg>
