<svg width="27" height="26" viewBox="0 0 27 26" fill="none" xmlns="http://www.w3.org/2000/svg">
<circle cx="13.4999" cy="12.5999" r="12.6" fill="white"/>
<path fill-rule="evenodd" clip-rule="evenodd" d="M14.0477 6.50366C10.8159 6.50366 8.21582 9.10372 8.21582 12.3356C8.21582 14.9113 9.89249 17.0983 12.201 17.8759C12.4926 17.9245 12.5897 17.7544 12.5897 17.5843C12.5897 17.4385 12.5897 17.074 12.5897 16.588C10.9617 16.9525 10.6215 15.8104 10.6215 15.8104C10.3542 15.13 9.96539 14.9599 9.96539 14.9599C9.4308 14.5954 10.014 14.5954 10.014 14.5954C10.5972 14.644 10.9131 15.2029 10.9131 15.2029C11.4234 16.102 12.2739 15.8347 12.614 15.6889C12.6626 15.3001 12.8084 15.0571 12.9785 14.9113C11.6907 14.7655 10.3299 14.2552 10.3299 12.0197C10.3299 11.3879 10.5486 10.8533 10.9374 10.4645C10.8888 10.3187 10.6701 9.73551 10.986 8.90932C10.986 8.90932 11.472 8.76353 12.5897 9.51681C13.0514 9.39532 13.5617 9.32242 14.0477 9.32242C14.5337 9.32242 15.044 9.39532 15.5057 9.51681C16.6235 8.76353 17.1095 8.90932 17.1095 8.90932C17.4254 9.71121 17.231 10.2944 17.1581 10.4645C17.5226 10.8776 17.7656 11.3879 17.7656 12.0197C17.7656 14.2552 16.4048 14.7412 15.0926 14.887C15.3113 15.0571 15.4814 15.4216 15.4814 15.9562C15.4814 16.7338 15.4814 17.3656 15.4814 17.56C15.4814 17.7058 15.5786 17.9002 15.8945 17.8516C18.203 17.0983 19.8796 14.9113 19.8796 12.3356C19.8796 9.10372 17.2796 6.50366 14.0477 6.50366Z" fill="#1E293B"/>
</svg>
