<svg width="68" height="69" viewBox="0 0 68 69" fill="none" xmlns="http://www.w3.org/2000/svg">
<g clip-path="url(#clip0_1_3056)">
<path d="M32.0078 60.5312H35.9922V68.5H32.0078V60.5312Z" fill="#FD5104"/>
<path d="M47.9453 16.7031H35.9922V11.125H44.625C45.3908 11.125 46.0889 10.6861 46.4206 9.99583C46.7524 9.3056 46.659 8.48628 46.1806 7.88823L44.5199 5.8125L46.1805 3.73664C46.6589 3.13872 46.7521 2.3194 46.4204 1.62917C46.0887 0.938945 45.3908 0.5 44.625 0.5H34C32.8998 0.5 32.0078 1.39197 32.0078 2.49219V16.7031H20.0547C18.9545 16.7031 18.0625 17.5951 18.0625 18.6953C18.0625 19.7955 18.9545 20.6875 20.0547 20.6875H22.0469V68.5H28.0234V58.5391C28.0234 57.4388 28.9154 56.5469 30.0156 56.5469H37.9844C39.0846 56.5469 39.9766 57.4388 39.9766 58.5391V68.5H45.9531V20.6875H47.9453C49.0455 20.6875 49.9375 19.7955 49.9375 18.6953C49.9375 17.5951 49.0455 16.7031 47.9453 16.7031ZM32.0078 50.5703C32.0078 51.6705 31.1158 52.5625 30.0156 52.5625C28.9154 52.5625 28.0234 51.6705 28.0234 50.5703V46.5859C28.0234 45.4857 28.9154 44.5938 30.0156 44.5938C31.1158 44.5938 32.0078 45.4857 32.0078 46.5859V50.5703ZM32.0078 38.6172C32.0078 39.7174 31.1158 40.6094 30.0156 40.6094C28.9154 40.6094 28.0234 39.7174 28.0234 38.6172V34.6328C28.0234 33.5326 28.9154 32.6406 30.0156 32.6406C31.1158 32.6406 32.0078 33.5326 32.0078 34.6328V38.6172ZM39.9766 50.5703C39.9766 51.6705 39.0846 52.5625 37.9844 52.5625C36.8842 52.5625 35.9922 51.6705 35.9922 50.5703V46.5859C35.9922 45.4857 36.8842 44.5938 37.9844 44.5938C39.0846 44.5938 39.9766 45.4857 39.9766 46.5859V50.5703ZM39.9766 38.6172C39.9766 39.7174 39.0846 40.6094 37.9844 40.6094C36.8842 40.6094 35.9922 39.7174 35.9922 38.6172V34.6328C35.9922 33.5326 36.8842 32.6406 37.9844 32.6406C39.0846 32.6406 39.9766 33.5326 39.9766 34.6328V38.6172ZM37.9844 28.6562H30.0156C28.9154 28.6562 28.0234 27.7643 28.0234 26.6641C28.0234 25.5638 28.9154 24.6719 30.0156 24.6719H37.9844C39.0846 24.6719 39.9766 25.5638 39.9766 26.6641C39.9766 27.7643 39.0846 28.6562 37.9844 28.6562Z" fill="#FD5104"/>
<path d="M66.0078 64.5156H63.8828V36.625H66.0078C67.108 36.625 68 35.733 68 34.6328C68 33.5326 67.108 32.6406 66.0078 32.6406H49.9375V68.5H66.0078C67.108 68.5 68 67.608 68 66.5078C68 65.4076 67.108 64.5156 66.0078 64.5156ZM58.9023 58.5391C58.9023 59.6393 58.0104 60.5312 56.9102 60.5312C55.8099 60.5312 54.918 59.6393 54.918 58.5391V54.5547C54.918 53.4545 55.8099 52.5625 56.9102 52.5625C58.0104 52.5625 58.9023 53.4545 58.9023 54.5547V58.5391ZM58.9023 46.5859C58.9023 47.6862 58.0104 48.5781 56.9102 48.5781C55.8099 48.5781 54.918 47.6862 54.918 46.5859V42.6016C54.918 41.5013 55.8099 40.6094 56.9102 40.6094C58.0104 40.6094 58.9023 41.5013 58.9023 42.6016V46.5859Z" fill="#FD5104"/>
<path d="M0 34.6328C0 35.733 0.891969 36.625 1.99219 36.625H4.11719V64.5156H1.99219C0.891969 64.5156 0 65.4076 0 66.5078C0 67.608 0.891969 68.5 1.99219 68.5H18.0625V32.6406H1.99219C0.891969 32.6406 0 33.5326 0 34.6328ZM9.09766 42.6016C9.09766 41.5013 9.98962 40.6094 11.0898 40.6094C12.1901 40.6094 13.082 41.5013 13.082 42.6016V46.5859C13.082 47.6862 12.1901 48.5781 11.0898 48.5781C9.98962 48.5781 9.09766 47.6862 9.09766 46.5859V42.6016ZM9.09766 54.5547C9.09766 53.4545 9.98962 52.5625 11.0898 52.5625C12.1901 52.5625 13.082 53.4545 13.082 54.5547V58.5391C13.082 59.6393 12.1901 60.5312 11.0898 60.5312C9.98962 60.5312 9.09766 59.6393 9.09766 58.5391V54.5547Z" fill="#FD5104"/>
</g>
<defs>
<clipPath id="clip0_1_3056">
<rect width="68" height="68" fill="white" transform="translate(0 0.5)"/>
</clipPath>
</defs>
</svg>
