<svg width="49" height="63" viewBox="0 0 49 63" fill="none" xmlns="http://www.w3.org/2000/svg">
<path d="M15.0684 36.2369L15.0685 36.2367L5.57049 39.2061C2.28597 39.9591 0 42.7657 0 46.0623V62.564H9.36615V57.0877H13.1126V62.564H22.4788V52.4734L15.3273 38.5357C14.9622 37.8241 14.8704 37.0087 15.0684 36.2369ZM6.86851 49.7664V46.1156H13.0473L13.1126 49.7408L6.86851 49.7664Z" fill="#FD5104"/>
<path d="M43.1334 39.2063L33.6355 36.2368C33.8335 37.0087 33.7417 37.8241 33.3766 38.5359L26.2251 52.4734V62.564H35.5912V57.0877H39.3377V62.564H48.7039V46.0623C48.7039 42.7657 46.4178 39.9591 43.1334 39.2063Z" fill="#FD5104"/>
<path d="M29.6878 35.9014C26.3014 37.3773 22.4055 37.3785 19.0164 35.9014C18.8331 36.6155 18.9181 37.3702 19.256 38.0285L24.352 47.9607L29.4482 38.0286C29.786 37.3703 29.8709 36.6155 29.6878 35.9014Z" fill="#FD5104"/>
<path d="M14.9858 24.2304C14.9858 29.2712 19.1791 33.3574 24.352 33.3574C29.5249 33.3574 33.7181 29.2712 33.7181 24.2304V18.7542L18.7323 15.1033L14.9858 18.7542V24.2304Z" fill="#FD5104"/>
<path d="M11.2393 24.2303V17.2419L17.5829 11.0601L37.4645 15.9035V24.2303C37.4645 26.189 37.0093 28.0459 36.1976 29.7066H43.0842V18.7541C43.0842 8.66542 34.7064 0.5 24.3519 0.5C14.0228 0.5 5.61963 8.68867 5.61963 18.7541V29.7066H12.5062C11.6945 28.0459 11.2393 26.189 11.2393 24.2303Z" fill="#FD5104"/>
</svg>
