<svg width="57" height="59" viewBox="0 0 57 59" fill="none" xmlns="http://www.w3.org/2000/svg">
<path d="M52.24 6.22885V3.3455C52.24 1.77407 50.9425 0.5 49.342 0.5H7.32788C5.72773 0.5 4.43018 1.77407 4.43018 3.3455V6.22956C4.43897 6.22956 4.44776 6.22885 4.45655 6.22885H52.24Z" fill="#FD5104"/>
<path d="M6.22474 21.6462C8.60225 21.6462 10.76 20.3846 11.952 18.544C12.903 20.3846 14.8951 21.6462 17.2726 21.6462C19.6505 21.6462 21.7547 20.3846 22.8702 18.544C23.8978 20.3846 25.9427 21.6462 28.3202 21.6462C30.6977 21.6462 32.7495 20.3846 33.7877 18.544C34.8926 20.3846 36.9906 21.6462 39.3681 21.6462C41.7456 21.6462 43.7443 20.3846 44.7056 18.544C45.8873 20.3846 48.0381 21.6462 50.4156 21.6462C54.2636 21.6462 55.4567 18.9581 55.4567 18.252C55.4542 18.0407 55.4183 17.8283 55.3494 17.623L52.2656 9.66553H4.45645L1.32649 17.643C1.23893 17.899 1.20377 18.1663 1.22025 18.4284C1.22025 19.4882 3.01858 21.6462 6.22474 21.6462Z" fill="#FD5104"/>
<path d="M55.5142 51.964H1.15578C0.517263 51.964 0 52.4688 0 53.0906V57.8617C0 58.4839 0.517263 58.988 1.15578 58.988H55.5142C56.1524 58.988 56.6704 58.4839 56.6704 57.8617V53.0906C56.6704 52.4688 56.1524 51.964 55.5142 51.964Z" fill="#FD5104"/>
<path d="M52.2398 48.2289V24.9183C51.6478 25.0268 51.0379 25.0836 50.4155 25.0836C48.4211 25.0836 46.4803 24.4964 44.834 23.4522C43.2719 24.4971 41.378 25.0836 39.3679 25.0836C37.3681 25.0836 35.4434 24.4964 33.8264 23.4511C32.2354 24.4967 30.325 25.0836 28.3204 25.0836C26.3147 25.0836 24.4069 24.4967 22.8192 23.4518C21.1985 24.4964 19.2719 25.0836 17.2729 25.0836C15.2621 25.0836 13.3699 24.4978 11.8116 23.4525C10.162 24.4964 8.21892 25.0836 6.22497 25.0836C5.61282 25.0836 5.01314 25.0286 4.43066 24.9233V48.2289H9.37984V31.0006C9.37984 30.0542 10.1667 29.2871 11.1382 29.2871H22.958C23.9292 29.2871 24.7164 30.0542 24.7164 31.0006V48.2289H52.2398ZM30.0491 31.0006C30.0491 30.0542 30.8367 29.2871 31.8075 29.2871H45.5319C46.503 29.2871 47.2903 30.0542 47.2903 31.0006V42.0888C47.2903 43.0348 46.503 43.8023 45.5319 43.8023H31.8075C30.8367 43.8023 30.0491 43.0348 30.0491 42.0888V31.0006Z" fill="#FD5104"/>
<path d="M12.8965 32.7141H21.1987V48.2288H12.8965V32.7141Z" fill="#FD5104"/>
<path d="M33.5664 32.7141H43.7739V40.3752H33.5664V32.7141Z" fill="#FD5104"/>
</svg>
