<svg width="69" height="70" viewBox="0 0 69 70" fill="none" xmlns="http://www.w3.org/2000/svg">
<g clip-path="url(#clip0_1_3062)">
<path d="M23.0107 31.305C22.5922 30.4679 22.3711 29.5282 22.3711 28.5925V22.1689L18.9204 25.6196C18.5413 25.9987 18.3281 26.5119 18.3281 27.0488C18.3281 31.4965 18.3281 34.8337 18.3281 39.1777C18.3281 40.295 19.2323 41.1992 20.3496 41.1992C21.4669 41.1992 22.3711 40.295 22.3711 39.1777V36.3843L24.9145 35.1125L23.0107 31.305Z" fill="#FD5104"/>
<path d="M50.0795 25.6197L46.6289 22.1689V28.5927C46.6289 29.5283 46.4077 30.4681 45.9893 31.3051L44.0854 35.1126L46.6289 36.3844V39.1778C46.6289 40.2952 47.533 41.1993 48.6504 41.1993C49.7677 41.1993 50.6718 40.2952 50.6718 39.1778C50.6718 37.5649 50.6718 34.0864 50.6718 27.0489C50.6718 26.512 50.4586 25.9987 50.0795 25.6197Z" fill="#FD5104"/>
<path d="M26.8454 38.6678L26.414 38.8835V39.1776C26.414 42.5217 23.6936 45.2421 20.3496 45.2421C17.0055 45.2421 14.2851 42.5217 14.2851 39.1776C14.2851 34.8957 14.2851 31.2672 14.2851 27.0488C14.2851 26.3469 14.4253 25.6704 14.6533 25.0273H10.2422C6.89811 25.0274 4.04297 27.7477 4.04297 31.0919V57.3711H12.2637C12.2637 52.9116 15.8901 49.2852 20.3496 49.2852C20.9773 49.2852 21.6032 49.3582 22.2131 49.5023C23.6977 47.4157 25.9303 45.9627 28.4355 45.4475V40.1566C27.8344 39.7513 27.2816 39.2702 26.8454 38.6678Z" fill="#FD5104"/>
<path d="M48.6503 53.328C48.0009 53.328 47.383 53.4761 46.8124 53.7683C45.7978 54.2919 44.5388 53.8657 44.0546 52.8148C43.0675 50.671 40.9039 49.2852 38.5429 49.2852C37.4256 49.2852 36.5214 48.3811 36.5214 47.2637V41.1993H32.4785V47.2637C32.4785 48.3811 31.5743 49.2852 30.457 49.2852C28.0961 49.2852 25.9324 50.671 24.9454 52.8148C24.4625 53.863 23.2116 54.2905 22.1875 53.7683C21.6171 53.4761 20.9992 53.328 20.3496 53.328C18.1209 53.328 16.3066 55.1422 16.3066 57.371H52.6933C52.6933 55.1422 50.8791 53.328 48.6503 53.328Z" fill="#FD5104"/>
<path d="M58.8925 25.0274H54.3469C54.5749 25.6705 54.7148 26.347 54.7148 27.0489C54.7148 34.0804 54.7148 37.5687 54.7148 39.1778C54.7148 42.5218 51.9944 45.2422 48.6504 45.2422C45.3063 45.2422 42.5859 42.5218 42.5859 39.1778V38.8832L42.1554 38.6679C41.7191 39.2703 41.166 39.7517 40.5645 40.1571V45.4475C43.0696 45.9627 45.3023 47.4156 46.7868 49.5023C47.3968 49.3582 48.0226 49.2852 48.6504 49.2852C53.1099 49.2852 56.8711 52.9116 56.8711 57.3711H64.957V31.0918C64.957 27.7478 62.2366 25.0274 58.8925 25.0274Z" fill="#FD5104"/>
<path d="M26.4141 16.9415V28.5932C26.4141 28.759 26.4868 28.9109 26.5269 29.0704H42.4731C42.5131 28.9107 42.5859 28.759 42.5859 28.5932V16.9415H26.4141ZM34.5 25.0275C33.3836 25.0275 32.4785 24.1224 32.4785 23.006C32.4785 21.8893 33.3836 20.9845 34.5 20.9845C35.6164 20.9845 36.5215 21.8893 36.5215 23.006C36.5215 24.1224 35.6164 25.0275 34.5 25.0275Z" fill="#FD5104"/>
<path d="M35.8819 0.952374L35.4041 0.713569C34.8349 0.42881 34.1651 0.42881 33.5958 0.713569L33.1181 0.952374C29.0095 3.00674 26.4141 7.47569 26.4141 12.0694V12.8985H42.5859V12.0694C42.5859 7.47569 39.9905 3.00674 35.8819 0.952374Z" fill="#FD5104"/>
<path d="M28.4355 33.1133L29.8982 36.0387C30.2405 36.7237 30.9404 37.1563 31.7062 37.1563H37.2934C38.0591 37.1563 38.7591 36.7237 39.1014 36.0387L40.5642 33.1133H28.4355Z" fill="#FD5104"/>
<path d="M66.9784 61.4141H2.02148C0.905084 61.4141 0 62.3189 0 63.4355C0 66.7849 2.71512 69.5 6.06444 69.5H62.9354C66.2848 69.5 68.9999 66.7849 68.9999 63.4355C68.9999 62.3189 68.0948 61.4141 66.9784 61.4141Z" fill="#FD5104"/>
</g>
<defs>
<clipPath id="clip0_1_3062">
<rect width="69" height="69" fill="white" transform="translate(0 0.5)"/>
</clipPath>
</defs>
</svg>
