<svg width="56" height="57" viewBox="0 0 56 57" fill="none" xmlns="http://www.w3.org/2000/svg">
<g clip-path="url(#clip0_1_3091)">
<path d="M38.0947 28.5C38.0947 26.676 38.0294 24.9133 37.9073 23.2202C35.9045 22.836 34.2829 21.3657 33.6837 19.4473H18.4719C18.1093 22.2418 17.9053 25.2748 17.9053 28.5C17.9053 30.4785 17.9825 32.3841 18.1253 34.2076C20.1132 34.6014 21.7203 36.0666 22.3161 37.9746H37.4722C37.87 35.0646 38.0947 31.888 38.0947 28.5Z" fill="#FD5104"/>
<path d="M39.5297 12.3244C41.7413 12.5576 43.5674 14.1032 44.2116 16.1661H53.1324C49.5385 8.87278 42.8629 3.36072 34.8154 1.34045C35.9266 2.82992 36.9393 4.70352 37.8236 6.93695C38.4783 8.5907 39.0485 10.3978 39.5297 12.3244Z" fill="#FD5104"/>
<path d="M14.8633 34.5563C14.7052 32.5823 14.624 30.556 14.624 28.5C14.624 25.388 14.81 22.3444 15.1676 19.4473H1.50248C0.529266 22.2883 0 25.3334 0 28.5C0 31.824 0.583516 35.0141 1.65145 37.9746H11.7884C12.2679 36.4391 13.4026 35.1908 14.8633 34.5563Z" fill="#FD5104"/>
<path d="M16.5806 45.107C14.3197 44.9143 12.4434 43.3529 11.7883 41.2559H3.07812C6.71878 48.34 13.2925 53.6783 21.1845 55.6595C20.0734 54.17 19.0607 52.2964 18.1764 50.063C17.5709 48.5335 17.038 46.872 16.5806 45.107Z" fill="#FD5104"/>
<path d="M18.9893 16.166H33.6836C34.1129 14.7916 35.0668 13.6468 36.3098 12.9667C34.3459 5.22631 31.0609 0.5 27.9998 0.5C24.5372 0.5 20.7884 6.54887 18.9893 16.166Z" fill="#FD5104"/>
<path d="M12.5264 6.26956C12.5264 9.30953 10.0532 11.7828 7.0131 11.7828C6.55241 11.7828 6.10507 11.7252 5.67697 11.6182C4.60269 13.0353 3.66032 14.5573 2.86768 16.1661H15.6568C16.2544 12.7752 17.1023 9.65034 18.1765 6.93708C19.0608 4.70364 20.0735 2.83004 21.1846 1.34058C18.0192 2.13519 15.0657 3.46945 12.4287 5.24056C12.4919 5.57415 12.5264 5.91781 12.5264 6.26956Z" fill="#FD5104"/>
<path d="M43.4737 50.7305C43.4737 47.6905 45.9469 45.2172 48.9869 45.2172C49.4476 45.2172 49.895 45.2748 50.3231 45.3818C51.3032 44.089 52.1748 42.7096 52.9218 41.2559H40.2665C39.6738 44.484 38.853 47.4629 37.8236 50.063C36.9393 52.2964 35.9266 54.17 34.8154 55.6595C37.981 54.8647 40.9344 53.5306 43.5714 51.7594C43.5081 51.4259 43.4737 51.0822 43.4737 50.7305Z" fill="#FD5104"/>
<path d="M36.9303 41.2559H22.3164C21.8982 42.5946 20.9816 43.7144 19.7856 44.4003C21.7592 51.9221 24.988 56.5 28.0001 56.5C31.4119 56.5 35.1015 50.6278 36.9303 41.2559Z" fill="#FD5104"/>
<path d="M54.3486 37.9746C55.4165 35.0141 56 31.824 56 28.5C56 25.3334 55.4708 22.2883 54.4975 19.4473H44.2117C43.7356 20.9717 42.6134 22.2128 41.1677 22.8516C41.305 24.6966 41.376 26.5852 41.376 28.5C41.376 31.7633 41.1718 34.9518 40.7793 37.9746H54.3486Z" fill="#FD5104"/>
<path d="M38.9477 20.0386C40.1785 20.0386 41.1797 19.0374 41.1797 17.8066C41.1797 16.5758 40.1785 15.5746 38.9477 15.5746C37.717 15.5746 36.7158 16.5758 36.7158 17.8066C36.7158 19.0374 37.717 20.0386 38.9477 20.0386Z" fill="#FD5104"/>
<path d="M17.0523 41.8473C18.285 41.8473 19.2843 40.848 19.2843 39.6153C19.2843 38.3825 18.285 37.3832 17.0523 37.3832C15.8196 37.3832 14.8203 38.3825 14.8203 39.6153C14.8203 40.848 15.8196 41.8473 17.0523 41.8473Z" fill="#FD5104"/>
<path d="M7.01327 8.50157C8.24597 8.50157 9.24528 7.50226 9.24528 6.26955C9.24528 5.03684 8.24597 4.03754 7.01327 4.03754C5.78056 4.03754 4.78125 5.03684 4.78125 6.26955C4.78125 7.50226 5.78056 8.50157 7.01327 8.50157Z" fill="#FD5104"/>
<path d="M48.9869 48.4985C47.7561 48.4985 46.7549 49.4997 46.7549 50.7305C46.7549 51.9613 47.7561 52.9625 48.9869 52.9625C50.2176 52.9625 51.2188 51.9613 51.2188 50.7305C51.2188 49.4997 50.2176 48.4985 48.9869 48.4985Z" fill="#FD5104"/>
</g>
<defs>
<clipPath id="clip0_1_3091">
<rect width="56" height="56" fill="white" transform="translate(0 0.5)"/>
</clipPath>
</defs>
</svg>
